<svg width="200" height="200" viewBox="0 0 200 200" fill="none" xmlns="http://www.w3.org/2000/svg">
<g filter="url(#filter0_b_503_5009)">
<path d="M165.945 80.2798C164.545 36.4424 129.024 1.06596 85.0383 0C83.9054 0 82.9723 0.866089 82.9723 1.99867L82.9057 31.4457C82.9057 32.9114 81.7727 34.044 80.3066 34.1106C36.4545 35.443 1.06631 71.0193 0 114.99C0 116.123 0.866378 117.055 1.99933 117.055L31.3895 117.122C32.8557 117.122 33.9887 118.254 34.0553 119.72C35.4548 163.558 71.043 198.934 114.962 200C116.095 200 117.028 199.134 117.028 198.001L117.094 168.554C117.094 167.089 118.227 165.956 119.693 165.889C163.545 164.49 198.934 128.914 200 85.01C200 83.8774 199.134 82.9447 198.001 82.9447L168.61 82.8781C167.144 82.8781 166.011 81.7455 165.945 80.2798ZM114.162 165.69C89.2369 164.224 69.2436 143.971 68.3106 118.921C68.2439 117.855 67.3775 116.989 66.3112 116.989L36.9877 116.922C35.4548 116.922 34.2552 115.656 34.3219 114.124C35.7881 89.2072 56.048 69.2205 81.1063 68.2878C82.1726 68.2212 83.039 67.3551 83.039 66.2891L83.1056 36.9087C83.1056 35.3764 84.3719 34.1772 85.9047 34.2438C110.83 35.7095 130.823 55.9627 131.756 81.0127C131.823 82.0786 132.689 82.9447 133.755 82.9447L163.079 83.0113C164.612 83.0113 165.811 84.2772 165.745 85.8095C164.279 111.392 143.019 131.712 117.094 131.712L117.028 163.025C116.961 164.557 115.695 165.756 114.162 165.69Z" fill="url(#paint0_linear_503_5009)" fill-opacity="0.3"/>
</g>
<g filter="url(#filter1_b_503_5009)">
<path fill-rule="evenodd" clip-rule="evenodd" d="M82.1011 82.2758C82.1011 78.2446 86.4231 75.6892 89.9552 77.6319L122.576 95.5735C126.237 97.5871 126.237 102.848 122.576 104.861L89.9552 122.803C86.4231 124.746 82.1011 122.19 82.1011 118.159V82.2758Z" fill="url(#paint2_linear_503_5009)" fill-opacity="0.3"/>
<path d="M82.6011 82.2758C82.6011 78.6249 86.5153 76.3106 89.7143 78.07L122.335 96.0116C125.651 97.8352 125.651 102.6 122.335 104.423L89.7143 122.365C86.5153 124.124 82.6011 121.81 82.6011 118.159V82.2758Z" stroke="url(#paint3_linear_503_5009)" stroke-opacity="0.5"/>
</g>
<defs>
<filter id="filter0_b_503_5009" x="-12" y="-12" width="224" height="224" filterUnits="userSpaceOnUse" color-interpolation-filters="sRGB">
<feFlood flood-opacity="0" result="BackgroundImageFix"/>
<feGaussianBlur in="BackgroundImageFix" stdDeviation="6"/>
<feComposite in2="SourceAlpha" operator="in" result="effect1_backgroundBlur_503_5009"/>
<feBlend mode="normal" in="SourceGraphic" in2="effect1_backgroundBlur_503_5009" result="shape"/>
</filter>
<filter id="filter1_b_503_5009" x="70.1011" y="64.9683" width="67.221" height="70.4983" filterUnits="userSpaceOnUse" color-interpolation-filters="sRGB">
<feFlood flood-opacity="0" result="BackgroundImageFix"/>
<feGaussianBlur in="BackgroundImageFix" stdDeviation="6"/>
<feComposite in2="SourceAlpha" operator="in" result="effect1_backgroundBlur_503_5009"/>
<feBlend mode="normal" in="SourceGraphic" in2="effect1_backgroundBlur_503_5009" result="shape"/>
</filter>
<linearGradient id="paint0_linear_503_5009" x1="100" y1="0" x2="100" y2="200" gradientUnits="userSpaceOnUse">
<stop stop-color="white" stop-opacity="0.5"/>
<stop offset="1" stop-color="white"/>
</linearGradient>
<linearGradient id="paint1_linear_503_5009" x1="100" y1="0" x2="100" y2="200" gradientUnits="userSpaceOnUse">
<stop stop-color="white" stop-opacity="0"/>
<stop offset="1" stop-color="white"/>
</linearGradient>
<linearGradient id="paint2_linear_503_5009" x1="103.712" y1="76.9683" x2="103.712" y2="123.466" gradientUnits="userSpaceOnUse">
<stop offset="0.147231" stop-color="white"/>
<stop offset="0.42761" stop-color="white" stop-opacity="0.5"/>
<stop offset="1" stop-color="#1600FD" stop-opacity="0"/>
</linearGradient>
<linearGradient id="paint3_linear_503_5009" x1="103.712" y1="76.9683" x2="103.712" y2="123.466" gradientUnits="userSpaceOnUse">
<stop stop-color="white" stop-opacity="0"/>
<stop offset="1" stop-color="white"/>
</linearGradient>
</defs>
</svg>
